<svg width="57" height="60" viewBox="0 0 57 60" fill="none" xmlns="http://www.w3.org/2000/svg">
<path d="M4.5 26.5L10.5 12L20 11H30.5L44.5 14L52.5 20C52.6667 23.6667 53 31.1 53 31.5C53 31.9 51.3333 37.6667 50.5 40.5L38.5 56H28L20 52.5L9 46.5L4.5 26.5Z" fill="white"/>
<path d="M23.4749 30.4199C21.5099 30.4199 19.9199 28.8299 19.9199 26.8649C19.9199 24.8999 21.5099 23.3174 23.4749 23.3174C25.4399 23.3174 27.0299 24.9074 27.0299 26.8649C27.0299 28.8224 25.4324 30.4199 23.4749 30.4199Z" fill="#1A1A1A"/>
<path d="M35.3774 33.2923C35.8124 33.7798 35.7749 34.5298 35.2874 34.9723C34.4024 35.7673 31.9799 37.6048 28.4474 37.6048H28.2899C24.8324 37.5523 22.4624 35.7448 21.6074 34.9723C21.1199 34.5298 21.0824 33.7798 21.5174 33.2923C21.9599 32.8048 22.7099 32.7673 23.1974 33.2098C23.8574 33.8023 25.6724 35.1898 28.3274 35.2348C31.1099 35.2798 33.0074 33.8323 33.6974 33.2098C34.1849 32.7673 34.9349 32.8048 35.3774 33.2923Z" fill="#1A1A1A"/>
<path d="M36.9752 26.8649C36.9752 28.8299 35.3852 30.4199 33.4202 30.4199C31.4552 30.4199 29.8652 28.8299 29.8652 26.8649C29.8652 24.8999 31.4627 23.3174 33.4202 23.3174C35.3777 23.3174 36.9752 24.9074 36.9752 26.8649Z" fill="#1A1A1A"/>
<path d="M53.0925 13.5675C50.5575 9.105 47.145 5.73 42.84 3.45C38.535 1.1475 33.7425 0 28.4475 0C23.1525 0 18.3 1.1475 13.995 3.45C9.7125 5.73 6.3075 9.105 3.7725 13.5675C1.26 18.0225 0 23.4975 0 30C0 36.5025 1.26 41.925 3.7725 46.395C6.3075 50.8425 9.7125 54.225 13.995 56.5425C18.3 58.845 23.115 60 28.4475 60C33.78 60 38.535 58.8525 42.84 56.5725C47.145 54.2775 50.5575 50.9025 53.0925 46.4475C55.6275 41.985 56.895 36.495 56.895 30C56.895 23.505 55.6275 18.0225 53.0925 13.5675ZM47.2575 34.41C47.2575 37.8975 44.805 40.995 41.2575 41.52C39.195 41.82 37.1175 42.0525 35.0325 42.2025C34.815 42.2175 34.62 42.33 34.5 42.51L29.565 49.9125C29.1525 50.5275 28.32 50.7 27.705 50.2875C27.555 50.19 27.4275 50.0625 27.33 49.9125L22.395 42.51C22.275 42.33 22.08 42.2175 21.8625 42.2025C19.7775 42.0525 17.7 41.82 15.6375 41.52C12.09 40.995 9.6375 37.89 9.6375 34.41V23.625C9.6375 20.1375 12.09 17.0325 15.6375 16.515C19.875 15.8925 24.1575 15.5775 28.4475 15.585C32.7975 15.585 37.0725 15.9 41.2575 16.515C44.805 17.04 47.2575 20.1375 47.2575 23.625V34.41Z" fill="#1A1A1A"/>
</svg>
